<?xml version="1.0" standalone="no"?><!DOCTYPE svg PUBLIC "-//W3C//DTD SVG 1.1//EN" "http://www.w3.org/Graphics/SVG/1.1/DTD/svg11.dtd"><svg t="1642400636670" class="icon" viewBox="0 0 1024 1024" version="1.1" xmlns="http://www.w3.org/2000/svg" p-id="11518" xmlns:xlink="http://www.w3.org/1999/xlink" width="200" height="200"><defs><style type="text/css"></style></defs><path d="M315.076923 433.230769a39.384615 39.384615 0 0 0-39.384615 39.384616v275.692307a39.384615 39.384615 0 0 0 39.384615 39.384616h275.692308a39.384615 39.384615 0 0 0 39.384615-39.384616v-78.76923h-157.538461a78.769231 78.769231 0 0 1-78.769231-78.769231v-157.538462H315.076923z m118.153846-39.384615v196.923077a39.384615 39.384615 0 0 0 39.384616 39.384615h196.923077v118.153846a78.769231 78.769231 0 0 1-78.769231 78.769231H315.076923a78.769231 78.769231 0 0 1-78.769231-78.769231v-275.692307a78.769231 78.769231 0 0 1 78.769231-78.769231h118.153846z" p-id="11519" fill="#40c706"></path><path d="M472.615385 275.692308a39.384615 39.384615 0 0 0-39.384616 39.384615v275.692308a39.384615 39.384615 0 0 0 39.384616 39.384615h275.692307a39.384615 39.384615 0 0 0 39.384616-39.384615V315.076923a39.384615 39.384615 0 0 0-39.384616-39.384615h-275.692307z m0-39.384616h275.692307a78.769231 78.769231 0 0 1 78.769231 78.769231v275.692308a78.769231 78.769231 0 0 1-78.769231 78.769231h-275.692307a78.769231 78.769231 0 0 1-78.769231-78.769231V315.076923a78.769231 78.769231 0 0 1 78.769231-78.769231z" p-id="11520" fill="#40c706"></path><path d="M590.769231 433.230769h-78.769231v39.384616h78.769231v78.76923h39.384615v-78.76923h78.926769v-39.384616h-78.887384V354.461538H590.769231v78.769231z" p-id="11521" fill="#40c706"></path></svg>