<svg xmlns="http://www.w3.org/2000/svg" width="120" height="120" viewBox="0 0 120 120"><defs><style>.a{fill:#ffc400;}</style></defs><g transform="translate(0 0)"><path class="a" d="M67.34,32.628,65.086,73.885a4.864,4.864,0,0,1-9.713,0L53.119,32.628a7.16,7.16,0,1,1,14.3-.779A2.68,2.68,0,0,0,67.34,32.628Z"/><ellipse class="a" cx="5.778" cy="5.788" rx="5.778" ry="5.788" transform="translate(54.518 84.317)"/><path class="a" d="M91.158,110.577A57.615,57.615,0,0,1,70.9,118.865,58.958,58.958,0,0,1,11.887,96.024,60.207,60.207,0,0,1,84.708,5.178a59.506,59.506,0,0,1,35.267,53.467,56.487,56.487,0,0,1-3.815,21.826,57.245,57.245,0,0,1-11.585,18.641,3.472,3.472,0,0,1-5.263-4.52l.025-.031a53.774,53.774,0,0,0,9.034-16.852,50.874,50.874,0,0,0,2.031-9.29,46.252,46.252,0,0,0,.287-9.465A50.637,50.637,0,0,0,95.7,25.443,50.519,50.519,0,0,0,44.063,13.585a50.107,50.107,0,0,0-33.4,41.209,52.355,52.355,0,0,0,1.14,18.6,50.206,50.206,0,0,0,7.812,16.972,50.786,50.786,0,0,0,13.525,13.02,52.246,52.246,0,0,0,17.379,7.29,51.338,51.338,0,0,0,18.988.486A52.654,52.654,0,0,0,87.5,104.677l.017-.009a3.471,3.471,0,0,1,3.642,5.908"/></g></svg>