<svg xmlns="http://www.w3.org/2000/svg" width="205.81" height="32" viewBox="0 0 205.81 32"><defs><style>.a{fill:#40c706;}.b{fill:#002391;}</style></defs><g transform="translate(-1598.095 804.373)"><path class="a" d="M1708.253-785.2a32.455,32.455,0,0,0-5.846-9.212c1.169.612,2.555,1.381,3.442,1.866a1.778,1.778,0,0,0,1.834.157c.477-.3.974-1.14.1-3.015-2.289-4.927-7.434-8.25-13-8.959-.588-.075-.98.127-1.068.514-.083.368.194.77.789.933a13.833,13.833,0,0,1,8.561,6.186,44.71,44.71,0,0,0-17.08-5.945c-.765-.1-1.287.17-1.379.683-.088.489.279.939,1.07,1.151,5.206,1.4,12.037,4.266,16.765,12.594a50.619,50.619,0,0,0-22.909-10.339c-.837-.128-1.391.17-1.508.692s.213,1.034,1.071,1.316c5.927,1.951,14.328,6.442,18.751,15.761-4.374-4.578-13.712-9.606-20.549-11.149-.91-.205-1.456.048-1.631.559-.17.495.111,1.091.982,1.465,3.794,1.631,9.384,5.151,12.216,10.946a27.494,27.494,0,0,0-8.466-4.593c-3.1-.878-4.707.6-2.979,3.7a20.532,20.532,0,0,0,6.472,6.388c.984.6,1.765-.38.865-1.207a18.872,18.872,0,0,1-3.913-4.416c-.343-.767.193-1.066,1.108-.64a37.533,37.533,0,0,1,8.131,5.8c.837.736,2.156,1.919,3.469,1.493,1.1-.357,1.37-1.705.85-3.424a28.021,28.021,0,0,0-2.825-5.983,91.8,91.8,0,0,1,7.249,6.322c1.193,1.134,2.582,2.291,4,1.714,1.267-.514,1.344-2.18.97-3.718a32.544,32.544,0,0,0-4.429-9.058c1.4.911,3.7,2.725,5.467,4.093,1.144.884,2.129,1.1,2.918.669C1708.6-782.309,1708.844-783.647,1708.253-785.2Z"/><path class="b" d="M1648.576-792.386H1644.6l-2.677,4.113-2.68-4.113h-4l4.445,6.487-4.72,6.846h3.892l3.064-4.5,3.037,4.5h3.919L1644.1-785.9Z"/><path class="b" d="M1652.854-798.226a2.042,2.042,0,0,0-2.042,2.042,2.042,2.042,0,0,0,2.042,2.042,2.042,2.042,0,0,0,2.042-2.042A2.042,2.042,0,0,0,1652.854-798.226Z"/><path class="b" d="M1614.244-792.706a5.655,5.655,0,0,0-4.582,2.43,3.529,3.529,0,0,0-3.7-2.43,5.834,5.834,0,0,0-4.361,2.07l-1.134-1.738h-2.372v13.332h3.506v-8.971a3.579,3.579,0,0,1,2.761-1.574c1.435,0,1.988.884,1.988,2.126v8.419h3.532v-9a3.54,3.54,0,0,1,2.761-1.547c1.435,0,1.987.884,1.987,2.126v8.419h3.534v-9.633C1618.164-791.408,1616.7-792.706,1614.244-792.706Z"/><path class="b" d="M1627.243-792.705a10.864,10.864,0,0,0-5.916,1.83l1.43,2.2a7.461,7.461,0,0,1,3.878-1.209c1.767,0,2.927.883,2.927,2.235v1.3a8.082,8.082,0,0,0-4.224-.959c-2.126.044-4.637,1.318-4.637,4.187a4.442,4.442,0,0,0,4.638,4.416,6.822,6.822,0,0,0,4.223-1.507v1.175h3.505v-8.612C1633.067-791.492,1630.28-792.705,1627.243-792.705Zm2.319,10.633a4.589,4.589,0,0,1-2.816.957c-1.38,0-2.511-.718-2.511-1.96a2.137,2.137,0,0,1,2.4-2.062,5.534,5.534,0,0,1,2.928.776Z"/><rect class="b" width="3.505" height="13.332" transform="translate(1651.114 -792.374)"/><path class="b" d="M1663.569-787.35c-1.492-.3-2.541-.607-2.541-1.436,0-.772.829-1.241,2.1-1.241a5.706,5.706,0,0,1,3.834,1.431l1.491-2.29a8.382,8.382,0,0,0-5.353-1.819c-3.505,0-5.465,1.959-5.465,4.2,0,3.174,2.953,3.726,5.244,4.168,1.518.3,2.678.634,2.678,1.573,0,.828-.718,1.353-2.236,1.353a7.654,7.654,0,0,1-4.557-1.775l-1.569,2.411a8.979,8.979,0,0,0,5.96,2.069c3.7,0,5.769-1.822,5.769-4.279C1668.923-786.3,1665.859-786.909,1663.569-787.35Z"/><path class="b" d="M1722.434-792.405c3.958,0,6.5,3.031,6.5,7.181v.682h-10.184a3.994,3.994,0,0,0,4.2,3.632,5.586,5.586,0,0,0,3.741-1.447l1.31,1.884a7.685,7.685,0,0,1-5.351,1.911,6.63,6.63,0,0,1-6.908-6.935A6.665,6.665,0,0,1,1722.434-792.405Zm-3.714,5.843h7.427a3.528,3.528,0,0,0-3.713-3.495A3.638,3.638,0,0,0,1718.72-786.562Z"/><path class="b" d="M1737.614-778.89H1734.2l-5.215-18.211h3.577l3.549,14.034,3.768-14.034h2.539l3.768,14.034,3.522-14.034h3.577L1748.1-778.89h-3.413l-3.549-13.433Z"/><path class="b" d="M1758.146-778.562c-2.321,0-4.7-1.447-4.7-4.4,0-2.648,1.939-4.259,4.833-4.259a6.14,6.14,0,0,1,4.014,1.283v-1.556c0-1.475-1.2-2.458-3.113-2.458a5.384,5.384,0,0,0-3.877,1.666l-1.174-1.993a7.843,7.843,0,0,1,5.543-2.13c2.921,0,5.488,1.229,5.488,4.778v8.737H1762.3v-1.283A6.083,6.083,0,0,1,1758.146-778.562Zm1.01-6.689c-1.611,0-2.812.928-2.812,2.375,0,1.42,1.174,2.348,2.784,2.348a3.942,3.942,0,0,0,3.168-1.5v-2.129A4.62,4.62,0,0,0,1759.156-785.251Z"/><path class="b" d="M1771.742-797.1v18.211h-2.867V-797.1Z"/><path class="b" d="M1778.322-797.1v18.211h-2.867V-797.1Z"/><path class="b" d="M1787.905-792.405c3.959,0,6.5,3.031,6.5,7.181v.682h-10.185a4,4,0,0,0,4.2,3.632,5.586,5.586,0,0,0,3.741-1.447l1.31,1.884a7.685,7.685,0,0,1-5.351,1.911,6.63,6.63,0,0,1-6.908-6.935A6.665,6.665,0,0,1,1787.905-792.405Zm-3.713,5.843h7.427a3.528,3.528,0,0,0-3.714-3.495A3.638,3.638,0,0,0,1784.192-786.562Z"/><path class="b" d="M1797.816-781.948v-7.617h-2.184v-2.512h2.184v-3.6h2.867v3.6h2.675v2.512h-2.675v6.907c0,.9.437,1.557,1.256,1.557a1.851,1.851,0,0,0,1.283-.465l.683,2.157a3.782,3.782,0,0,1-2.7.847A3.042,3.042,0,0,1,1797.816-781.948Z"/></g></svg>